<svg xmlns="http://www.w3.org/2000/svg" width="117" height="30" viewBox="0 0 117 30" fill="none">
  <title>NOXA logo from the Maps screen</title>
  <rect width="30" height="30" rx="8" fill="#C8102E"/>
  <path d="M1 12L4.5 2.5H6L8.5 8.5 10 5H12L9.5 12H7.5L5 6.5 3.5 10H1Z"
        transform="translate(7.5 7.5) scale(1.0714285714)" fill="#FFFFFF" fill-rule="evenodd"/>
  <g fill="#F0F0F4">
    <path d="m 41.019531,6.4619141 h 4.619141 L 51.47168,17.461914 V 6.4619141 h 3.920898 V 22.5 h -4.619141 l -5.833007,-11 v 11 h -3.920899 z"/>
    <path d="m 69.257812,9.1689453 q -1.890625,0 -2.932617,1.3964847 -1.041992,1.396484 -1.041992,3.93164 0,2.524414 1.041992,3.920899 1.041992,1.396484 2.932617,1.396484 1.901368,0 2.94336,-1.396484 1.041992,-1.396485 1.041992,-3.920899 0,-2.535156 -1.041992,-3.93164 -1.041992,-1.3964847 -2.94336,-1.3964847 z m 0,-2.9970703 q 3.867188,0 6.058594,2.2128906 2.191406,2.2128904 2.191406,6.1123044 0,3.888672 -2.191406,6.101563 -2.191406,2.21289 -6.058594,2.21289 -3.856445,0 -6.058593,-2.21289 -2.191407,-2.212891 -2.191407,-6.101563 0,-3.899414 2.191407,-6.1123044 2.202148,-2.2128906 6.058593,-2.2128906 z"/>
    <path d="M 91.287109,14.314453 96.851562,22.5 H 92.543945 L 88.794922,17.021484 85.078125,22.5 h -4.329102 l 5.564454,-8.185547 -5.34961,-7.8525389 h 4.31836 l 3.512695,5.1669919 3.501953,-5.1669919 h 4.339844 z"/>
    <path d="m 111.54395,19.578125 h -6.4668 L 104.05664,22.5 H 99.899414 L 105.83984,6.4619141 h 4.93067 L 116.71094,22.5 h -4.15723 z m -5.43555,-2.975586 h 4.39355 l -2.1914,-6.380859 z"/>
  </g>
</svg>
